<svg xmlns="http://www.w3.org/2000/svg" data-name="24x24/On Light/Music" viewBox="0 0 24 24">
  <path fill="none" d="M0 0h24v24H0z"/>
  <path d="M2.25 18.5a3.25 3.25 0 113.25 3.25 3.254 3.254 0 01-3.25-3.25zm1.5 0a1.75 1.75 0 101.75-1.75 1.752 1.752 0 00-1.75 1.75zm10.5-2a3.25 3.25 0 113.25 3.25 3.254 3.254 0 01-3.25-3.25zm1.5 0a1.75 1.75 0 101.75-1.75 1.752 1.752 0 00-1.75 1.75z" fill="#141124"/>
  <path data-name="Shape" d="M8.75 18.5V7.715A1.25 1.25 0 019.81 6.48l9.164-1.565a.25.25 0 01.276.25V16.5a.75.75 0 001.5 0V5.165a1.75 1.75 0 00-2.016-1.729L9.57 4.999a2.747 2.747 0 00-2.32 2.716V18.5a.75.75 0 001.5 0z" fill="#141124"/>
</svg>
